<svg width="40" height="40" viewBox="0 0 40 40" fill="none" xmlns="http://www.w3.org/2000/svg">
<path d="M10.5519 19.6249C9.67499 19.6249 8.81744 19.2214 8.23459 18.477L3.89049 12.9254C3.01357 11.8051 2.9854 10.2003 3.82358 9.04684L5.31505 6.99239C6.15323 5.83895 7.63765 5.43728 8.90548 6.02137L15.7747 9.18503C17.0989 9.79492 17.8173 11.3095 17.4792 12.7817L16.8788 15.4037C16.6727 16.3065 16.0934 17.0675 15.2975 17.4802C15.2306 17.5152 15.1654 17.5465 15.0967 17.5742C14.8326 17.8561 14.5174 18.0864 14.1635 18.2486L11.7546 19.3578C11.3654 19.5365 10.9552 19.6231 10.5501 19.6231L10.5519 19.6249Z" fill="#0077FF"/>
<path d="M11.5539 28.3698C11.5169 28.3698 11.48 28.3698 11.443 28.368L3.34998 28.0584C1.95536 28.005 0.78085 26.951 0.518479 25.5175L0.0536058 22.9785C-0.208766 21.545 0.511435 20.1115 1.78807 19.5237L12.0822 14.781C13.1229 14.3019 14.3344 14.4806 15.206 15.2435C16.0794 16.0063 16.4633 17.2205 16.1991 18.3776L15.4578 21.6168C15.3909 21.9117 15.2835 22.1899 15.1426 22.4478C15.1567 22.7426 15.132 23.043 15.0651 23.3359L14.4629 25.9671C14.1407 27.3804 12.9327 28.3698 11.5522 28.3698H11.5539Z" fill="#0077FF"/>
<path d="M28.4742 28.3679C27.0955 28.3679 25.8875 27.3785 25.5635 25.9652L24.9613 23.3341C24.757 22.4404 24.9384 21.5007 25.4543 20.76C25.5441 20.2441 25.7572 19.754 26.083 19.3394L27.7505 17.2094C28.601 16.1205 30.0414 15.7612 31.2723 16.3268L38.2119 19.5237C39.4885 20.1115 40.2087 21.545 39.9464 22.9785L39.4815 25.5175C39.2191 26.951 38.0446 28.005 36.65 28.0584L28.5852 28.3661C28.5482 28.3661 28.5112 28.3679 28.476 28.3679H28.4742Z" fill="#0077FF"/>
<path d="M27.1466 22.5657C26.9247 22.5657 26.6993 22.5399 26.4774 22.4864C25.3698 22.2211 24.5 21.3201 24.2358 20.163L23.4945 16.9238C23.4346 16.6621 23.4082 16.3968 23.4135 16.1351C23.2955 15.903 23.2039 15.6542 23.1458 15.3926L22.5454 12.7706C22.209 11.2984 22.9257 9.78386 24.2499 9.17398L31.0945 6.02137C32.3623 5.43728 33.8467 5.83895 34.6849 6.99239L36.1764 9.04684C37.0145 10.2003 36.9864 11.8051 36.1094 12.9254L29.4656 21.4159C28.8898 22.1511 28.0358 22.5638 27.1501 22.5638L27.1466 22.5657Z" fill="#0077FF"/>
<path d="M26.4898 39.9982C25.6146 39.9982 24.7571 39.5965 24.1725 38.8502L20.0133 33.5363L15.8541 38.8502C14.9701 39.9797 13.4575 40.3206 12.2073 39.672L9.99384 38.5223C8.74362 37.8737 8.08857 36.407 8.41257 34.9864L15.8699 2.40269C16.1921 0.993136 17.3966 0 18.7806 0H21.2459C22.6299 0 23.8344 0.993136 24.1566 2.40269L31.6122 34.9883C31.9362 36.4089 31.2811 37.8755 30.0309 38.5241L27.8175 39.6739C27.3931 39.895 26.9388 40 26.488 40L26.4898 39.9982Z" fill="#0077FF"/>
<path d="M13.9685 14.6745L11.5226 13.5487L12.9595 15.3839L10.5506 16.4931L6.20825 10.9434L7.69972 8.88892L14.5689 12.0526L13.9685 14.6745Z" fill="url(#paint0_linear_2001_956)"/>
<path d="M13.2887 17.6467L12.8732 19.4616L12.5474 20.8859L9.06967 22.489L12.1547 22.6069L11.5525 25.2381L3.4595 24.9285L2.99463 22.3895L11.9399 18.2677L13.2887 17.6467Z" fill="url(#paint1_linear_2001_956)"/>
<path d="M37.0042 22.3892L36.5411 24.9283L28.4745 25.236L27.874 22.6048L30.9292 22.4887L28.3988 21.3224L30.0663 19.1924L37.0042 22.3892Z" fill="url(#paint2_linear_2001_956)"/>
<path d="M33.7923 10.9434L27.1467 19.4339L26.4072 16.1946L28.478 13.5487L26.0568 14.6635L25.4563 12.0415L32.3009 8.88892L33.7923 10.9434Z" fill="url(#paint3_linear_2001_956)"/>
<path d="M26.4884 36.8663L20.0136 28.5932L13.5389 36.8663L11.3254 35.7165L18.781 3.13281H21.2463L28.7018 35.7184L26.4884 36.8681V36.8663ZM19.0328 25.6599H20.9944L24.9511 30.7158L20.0136 9.13769L15.0761 30.7158L19.0328 25.6599Z" fill="white"/>
<defs>
<linearGradient id="paint0_linear_2001_956" x1="10.9891" y1="11.9795" x2="23.5807" y2="15.458" gradientUnits="userSpaceOnUse">
<stop stop-color="white"/>
<stop offset="1" stop-color="#0077FF" stop-opacity="0"/>
</linearGradient>
<linearGradient id="paint1_linear_2001_956" x1="6.3632" y1="22.664" x2="21.1343" y2="14.4933" gradientUnits="userSpaceOnUse">
<stop stop-color="white"/>
<stop offset="1" stop-color="#0077FF" stop-opacity="0"/>
</linearGradient>
<linearGradient id="paint2_linear_2001_956" x1="33.0948" y1="21.6487" x2="23.1114" y2="16.0626" gradientUnits="userSpaceOnUse">
<stop stop-color="white"/>
<stop offset="1" stop-color="#0077FF" stop-opacity="0"/>
</linearGradient>
<linearGradient id="paint3_linear_2001_956" x1="30.223" y1="13.1747" x2="20.6795" y2="18.5094" gradientUnits="userSpaceOnUse">
<stop stop-color="white"/>
<stop offset="1" stop-color="#0077FF" stop-opacity="0"/>
</linearGradient>
</defs>
</svg>
