<svg width="40" height="40" viewBox="0 0 40 40" fill="none" xmlns="http://www.w3.org/2000/svg">
<path d="M20 0C23.3906 0 26.5844 0.845312 29.3828 2.33437C28.0797 3.17812 27.2383 3.97813 26.5703 5.13516C24.5617 4.24609 22.3383 3.75156 20 3.75156C15.5125 3.75156 11.45 5.57109 8.51016 8.51016C5.57109 11.45 3.75156 15.5125 3.75156 20C3.75156 24.4875 5.57109 28.55 8.51016 31.4898C11.45 34.4289 15.5125 36.2484 20 36.2484C24.4875 36.2484 28.55 34.4289 31.4898 31.4898C34.4289 28.55 36.2484 24.4875 36.2484 20C36.2484 18.693 36.0938 17.4227 35.8023 16.2055C36.9719 15.5516 37.857 14.332 38.8586 13.3242C39.5977 15.4125 40 17.6594 40 20C40 25.5219 37.7609 30.5227 34.1414 34.1414C30.5227 37.7609 25.5219 40 20 40C14.4781 40 9.47734 37.7609 5.85781 34.1414C2.23906 30.5227 0 25.5219 0 20C0 14.4781 2.23906 9.47734 5.85781 5.85781C9.47734 2.23906 14.4781 0 20 0Z" fill="#B31F1F"/>
<path d="M17.9657 26.104H10.5997C10.3892 26.104 10.2365 26.0546 10.1416 25.9566C10.0475 25.8577 10 25.6993 10 25.4797V23.3801C10 23.1605 10.0475 23.0012 10.1416 22.9032C10.2365 22.8044 10.3892 22.7557 10.5997 22.7557H12.4667V16.9612H10.9335C10.7223 16.9612 10.5696 16.9126 10.4747 16.8145C10.3805 16.7157 10.3331 16.5565 10.3331 16.3369V14.238C10.3331 14.0176 10.3805 13.8592 10.4747 13.7604C10.5696 13.6623 10.7223 13.6137 10.9335 13.6137H15.7656C15.9769 13.6137 16.1295 13.6623 16.2245 13.7604C16.3186 13.8592 16.3653 14.0176 16.3653 14.238V22.7557H17.9657C18.1762 22.7557 18.3288 22.8044 18.423 22.9032C18.5179 23.0012 18.5654 23.1605 18.5654 23.3801V25.4797C18.5654 25.6993 18.5179 25.8577 18.423 25.9566C18.3288 26.0546 18.1762 26.104 17.9657 26.104ZM32.3363 3.63635H34.2231C34.6076 3.63635 34.9216 3.94851 34.9216 4.32969V6.86854H37.4833C37.8677 6.86854 38.1818 7.1807 38.1818 7.56188V9.43249C38.1818 9.81367 37.8677 10.1258 37.4833 10.1258H34.9216V12.6647C34.9216 13.0466 34.6076 13.358 34.2231 13.358H32.3363C31.9518 13.358 31.6369 13.0466 31.6369 12.6647V10.1258H29.0753C28.6908 10.1258 28.376 9.81367 28.376 9.43249V7.56188C28.376 7.1807 28.6908 6.86854 29.0753 6.86854H31.6369V4.32969C31.6369 3.94851 31.9518 3.63635 32.3363 3.63635ZM29.8664 21.6624V23.3456C29.8664 23.7958 29.7857 24.2075 29.6251 24.5769C29.4645 24.9471 29.1884 25.2656 28.8 25.5307C28.4116 25.7973 27.8863 26.0028 27.2257 26.1472C26.5651 26.2915 25.7344 26.3636 24.7345 26.3636C23.7345 26.3636 22.9007 26.2915 22.2354 26.1472C21.5684 26.0028 21.0408 25.7973 20.6523 25.5307C20.2631 25.2656 19.9878 24.9471 19.8272 24.5769C19.6666 24.2075 19.5859 23.7965 19.5859 23.3456V21.6624C19.5859 20.853 19.7552 20.2279 20.0938 19.7887C20.4324 19.3502 20.8525 19.0781 21.3517 18.9738C20.9854 18.8114 20.7299 18.569 20.5859 18.2451C20.4411 17.9212 20.3683 17.4263 20.3683 16.9871V15.9808C20.3683 15.5525 20.4411 15.1706 20.5859 14.8365C20.7291 14.5008 20.9696 14.2137 21.301 13.9768C21.6349 13.7408 22.0858 13.5572 22.6515 13.431C23.2179 13.3039 23.9181 13.2396 24.7511 13.2396C25.5841 13.2396 26.2819 13.3039 26.8428 13.431C27.4029 13.5572 27.8483 13.7408 28.1758 13.9768C28.5026 14.2137 28.7367 14.5008 28.8752 14.8365C29.0136 15.1706 29.0832 15.5541 29.0832 15.9808V16.9871C29.0832 17.4247 29.012 17.9212 28.8673 18.2451C28.7225 18.569 28.467 18.8114 28.1007 18.9738C28.6006 19.0781 29.0199 19.3502 29.3585 19.7887C29.6979 20.2279 29.8664 20.8538 29.8664 21.6624ZM23.5755 17.7769C23.5755 17.9565 23.6332 18.1149 23.7503 18.2365C23.8666 18.3581 24.2677 18.4185 24.7345 18.4185C25.2123 18.4185 25.6142 18.3565 25.7186 18.2365C25.8223 18.1165 25.8768 17.962 25.8768 17.7769V16.7871C25.8768 16.6129 25.8231 16.4663 25.7186 16.3447C25.6126 16.2231 25.2123 16.162 24.7345 16.162C24.2677 16.162 23.8666 16.2231 23.7503 16.3447C23.6332 16.4663 23.5755 16.6161 23.5755 16.7871V17.7769ZM23.1586 22.6859C23.1586 22.8671 23.2543 23.0256 23.4418 23.1456C23.6301 23.2663 24.1348 23.3283 24.7345 23.3283C25.3341 23.3283 25.8357 23.2663 26.0185 23.1456C26.2004 23.0256 26.293 22.871 26.293 22.6859V21.653C26.293 21.4797 26.2012 21.3322 26.0185 21.2106C25.8349 21.0898 25.3341 21.0287 24.7345 21.0287C24.1348 21.0287 23.6301 21.0898 23.4418 21.2106C23.2527 21.3322 23.1586 21.482 23.1586 21.653V22.6859Z" fill="white"/>
</svg>
