<svg width="124" height="20" viewBox="0 0 124 20" fill="none" xmlns="http://www.w3.org/2000/svg">
<path d="M0.658661 6.35815H12.4649C16.1253 6.35815 17.1035 7.77364 17.1035 9.20715V9.39198C17.1035 10.9607 15.7692 11.6685 14.9442 11.8533C16.0577 12.1238 17.8293 12.8676 17.8293 15.0765V15.2793C17.8293 17.2538 16.6302 18.9037 12.5325 18.9037H0.658661V6.35815ZM5.44606 9.21166V10.9833H11.0133C12.0096 10.9833 12.2936 10.5776 12.2936 10.1042V10.0727C12.2936 9.58582 12.0051 9.21166 11.0133 9.21166H5.44606ZM5.44606 13.8007V15.96H11.3154C12.564 15.96 12.7985 15.3695 12.7985 14.8826V14.833C12.7985 14.2921 12.546 13.8052 11.3154 13.8052H5.44606V13.8007Z" fill="#FD5732"/>
<path d="M19.0506 6.35815H23.8561V11.975C23.8561 13.5077 24.5322 15.3469 27.7013 15.3469C30.8208 15.3469 31.5285 13.5077 31.5285 11.975V6.35815H36.3204V12.3447C36.3204 14.7744 35.1574 19.1065 28.0574 19.1065H27.3812C20.0784 19.1065 19.0506 14.7699 19.0506 12.3447V6.35815Z" fill="#FD5732"/>
<path d="M61.9165 6.35815L69.2013 13.4942V6.35815H73.9571V18.9082H69.1697L61.3079 11.2988V18.9082H56.5521V6.35815H61.9165Z" fill="#FD5732"/>
<path d="M89.8073 6.35815V9.42804H80.6472V10.9968H89.6225V14.0486H80.6472V15.7707H89.9425V18.9082H75.9274V6.35815H89.8073Z" fill="#FD5732"/>
<path d="M49.3753 14.6439C49.4023 14.6439 50.331 14.6484 50.358 14.6484C52.648 14.6484 54.5008 12.7911 54.5008 10.5056C54.5008 8.28772 52.7562 6.48005 50.5654 6.37186C50.5654 6.36735 50.5654 6.36284 50.5654 6.36284C50.3445 6.35834 49.8125 6.36284 49.5601 6.36284H38.1551V18.9129H42.947V14.6078H43.7269L49.2626 18.9084H54.8704L49.3753 14.6439ZM49.8937 10.4921C49.8937 11.1007 49.506 11.5695 48.4421 11.5695H42.9425V9.41019H48.4421C49.5195 9.41019 49.8937 9.88352 49.8937 10.4741V10.4921Z" fill="#FD5732"/>
<path d="M102.884 14.6439C102.911 14.6439 103.84 14.6484 103.867 14.6484C106.157 14.6484 108.01 12.7911 108.01 10.5056C108.01 8.28772 106.265 6.48005 104.074 6.37186C104.074 6.36735 104.074 6.36284 104.074 6.36284C103.853 6.35834 103.322 6.36284 103.069 6.36284H91.6641V18.9129H96.456V14.6078H97.2359L102.772 18.9084H108.379L102.884 14.6439ZM103.403 10.4921C103.403 11.1007 103.015 11.5695 101.951 11.5695H96.4515V9.41019H101.951C103.029 9.41019 103.403 9.88352 103.403 10.4741V10.4921Z" fill="#FD5732"/>
<path d="M117.612 0.0200195C114.109 0.0200195 111.273 2.8555 111.273 6.35814C111.273 9.86079 114.109 12.6963 117.612 12.6963C121.114 12.6963 123.95 9.86079 123.95 6.35814C123.954 2.86 121.114 0.0200195 117.612 0.0200195ZM117.959 9.53622H113.451V5.56024L117.887 3.50463C119.924 2.55347 121.705 2.73378 121.705 4.22139C121.705 4.82996 121.448 5.35288 120.528 5.92989V6.00652C121.349 6.14627 121.781 6.6196 121.781 7.36791C121.777 8.35965 121.092 9.53622 117.959 9.53622Z" fill="#FD5732"/>
<path d="M118.78 5.35284C118.78 5.02827 118.365 5.06434 117.779 5.24916L116.165 5.77659V6.36262L117.779 6.02452C118.59 5.85322 118.78 5.67291 118.78 5.35284Z" fill="#FD5732"/>
<path d="M117.81 7.2283L116.169 7.48976V8.09833L117.77 8.00817C118.572 7.96309 118.973 7.84138 118.973 7.5078C118.973 7.17421 118.825 7.07053 117.81 7.2283Z" fill="#FD5732"/>
</svg>
