<svg width="178" height="29" viewBox="0 0 178 29" fill="none" xmlns="http://www.w3.org/2000/svg">
<path d="M0.984467 9.89169H17.8517C23.0812 9.89169 24.4787 11.914 24.4787 13.962V14.226C24.4787 16.4673 22.5724 17.4784 21.3938 17.7424C22.9846 18.1289 25.5156 19.1915 25.5156 22.3473V22.6371C25.5156 25.4579 23.8025 27.8151 17.9483 27.8151H0.984467V9.89169ZM7.82408 13.9684V16.4995H15.7779C17.2012 16.4995 17.6069 15.9198 17.6069 15.2436V15.1985C17.6069 14.503 17.1947 13.9684 15.7779 13.9684H7.82408ZM7.82408 20.5247V23.6096H16.2094C17.9933 23.6096 18.3282 22.7659 18.3282 22.0703V21.9995C18.3282 21.2266 17.9676 20.5311 16.2094 20.5311H7.82408V20.5247Z" fill="#FD5732"/>
<path d="M27.2605 9.89169H34.126V17.9163C34.126 20.106 35.092 22.7337 39.6196 22.7337C44.0763 22.7337 45.0874 20.106 45.0874 17.9163V9.89169H51.9334V18.4444C51.9334 21.9158 50.2718 28.1049 40.1283 28.1049H39.1623C28.729 28.1049 27.2605 21.9093 27.2605 18.4444V9.89169Z" fill="#FD5732"/>
<path d="M88.5017 9.89169L98.9093 20.0867V9.89169H105.704V27.8215H98.8642L87.6323 16.9503V27.8215H80.8377V9.89169H88.5017Z" fill="#FD5732"/>
<path d="M128.348 9.89169V14.2775H115.262V16.5188H128.084V20.8789H115.262V23.3391H128.542V27.8215H108.519V9.89169H128.348Z" fill="#FD5732"/>
<path d="M70.5845 21.729C70.6231 21.729 71.9499 21.7355 71.9885 21.7355C75.2602 21.7355 77.9071 19.082 77.9071 15.8168C77.9071 12.6482 75.4147 10.0656 72.2847 9.91104C72.2847 9.9046 72.2847 9.89816 72.2847 9.89816C71.9692 9.89172 71.2092 9.89816 70.8486 9.89816H54.5546V27.828H61.4007V21.6775H62.5149L70.4235 27.8216H78.4352L70.5845 21.729ZM71.3251 15.7975C71.3251 16.6669 70.7713 17.3367 69.2514 17.3367H61.3942V14.2518H69.2514C70.7906 14.2518 71.3251 14.928 71.3251 15.7717V15.7975Z" fill="#FD5732"/>
<path d="M147.031 21.729C147.07 21.729 148.397 21.7355 148.435 21.7355C151.707 21.7355 154.354 19.082 154.354 15.8168C154.354 12.6482 151.861 10.0656 148.731 9.91104C148.731 9.9046 148.731 9.89816 148.731 9.89816C148.416 9.89172 147.656 9.89816 147.295 9.89816H131.001V27.828H137.847V21.6775H138.961L146.87 27.8216H154.882L147.031 21.729ZM147.772 15.7975C147.772 16.6669 147.218 17.3367 145.698 17.3367H137.841V14.2518H145.698C147.237 14.2518 147.772 14.928 147.772 15.7717V15.7975Z" fill="#FD5732"/>
<path d="M168.072 0.836517C163.067 0.836517 159.016 4.88748 159.016 9.8916C159.016 14.8957 163.067 18.9467 168.072 18.9467C173.076 18.9467 177.127 14.8957 177.127 9.8916C177.133 4.89392 173.076 0.836517 168.072 0.836517ZM168.567 14.432H162.127V8.75167L168.464 5.81488C171.375 4.45598 173.919 4.71359 173.919 6.83889C173.919 7.70833 173.552 8.45541 172.238 9.27977V9.38926C173.411 9.58891 174.029 10.2651 174.029 11.3342C174.022 12.7511 173.043 14.432 168.567 14.432Z" fill="#FD5732"/>
<path d="M169.74 8.45539C169.74 7.99169 169.148 8.04321 168.311 8.30727L166.005 9.06078V9.89802L168.311 9.415C169.47 9.17027 169.74 8.91266 169.74 8.45539Z" fill="#FD5732"/>
<path d="M168.355 11.1346L166.011 11.5082V12.3776L168.297 12.2488C169.444 12.1844 170.017 12.0105 170.017 11.5339C170.017 11.0573 169.805 10.9092 168.355 11.1346Z" fill="#FD5732"/>
</svg>
