<svg width="255" height="49" viewBox="0 0 255 49" fill="none" xmlns="http://www.w3.org/2000/svg">
<path d="M13.4131 24.0444C12.2984 24.0444 11.2083 23.5542 10.4674 22.6499L4.94543 15.9058C3.83073 14.5449 3.79492 12.5953 4.86037 11.1941L6.75625 8.6983C7.8217 7.29709 9.70863 6.80913 11.3202 7.51869L20.052 11.3619C21.7353 12.1028 22.6485 13.9427 22.2187 15.7312L21.4555 18.9163C21.1936 20.0131 20.4572 20.9376 19.4454 21.439C19.3604 21.4815 19.2775 21.5195 19.1903 21.5531C18.8545 21.8956 18.4538 22.1754 18.0039 22.3723L14.9419 23.7198C14.4472 23.9369 13.9257 24.0421 13.4108 24.0421L13.4131 24.0444Z" fill="#0077FF"/>
<path d="M14.6868 34.6675C14.6398 34.6675 14.5928 34.6675 14.5458 34.6653L4.25832 34.2893C2.48555 34.2243 0.992577 32.944 0.659064 31.2026L0.0681409 28.1181C-0.265372 26.3767 0.650111 24.6353 2.27291 23.9212L15.3583 18.1597C16.6811 17.5778 18.2211 17.7949 19.3291 18.7216C20.4393 19.6482 20.9273 21.1233 20.5915 22.529L19.6492 26.464C19.5641 26.8221 19.4276 27.1601 19.2485 27.4735C19.2664 27.8316 19.2351 28.1965 19.15 28.5524L18.3845 31.7487C17.9749 33.4655 16.4394 34.6675 14.6845 34.6675H14.6868Z" fill="#0077FF"/>
<path d="M36.1951 34.6655C34.4425 34.6655 32.907 33.4635 32.4951 31.7467L31.7296 28.5503C31.47 27.4647 31.7005 26.3232 32.3564 25.4233C32.4705 24.7966 32.7414 24.2012 33.1555 23.6976L35.2752 21.1101C36.3563 19.7872 38.1873 19.3507 39.7519 20.0379L48.5732 23.9214C50.196 24.6355 51.1115 26.3769 50.7779 28.1183L50.187 31.2028C49.8535 32.9442 48.3605 34.2245 46.5878 34.2894L36.3361 34.6632C36.2891 34.6632 36.2421 34.6655 36.1974 34.6655H36.1951Z" fill="#0077FF"/>
<path d="M34.5074 27.6168C34.2253 27.6168 33.9388 27.5855 33.6568 27.5205C32.2489 27.1982 31.1431 26.1037 30.8074 24.698L29.865 20.763C29.7889 20.4451 29.7553 20.1228 29.7621 19.805C29.6121 19.5229 29.4957 19.2208 29.4218 18.9029L28.6586 15.7177C28.231 13.9293 29.142 12.0894 30.8253 11.3485L39.5257 7.51869C41.1373 6.80913 43.0242 7.29709 44.0897 8.6983L45.9856 11.1941C47.051 12.5953 47.0152 14.5449 45.9005 15.9058L37.4552 26.2201C36.7233 27.1132 35.6377 27.6145 34.5118 27.6145L34.5074 27.6168Z" fill="#0077FF"/>
<path d="M33.6725 48.7938C32.56 48.7938 31.47 48.3059 30.7268 47.3994L25.4399 40.944L20.1529 47.3994C19.0293 48.7715 17.1065 49.1856 15.5173 48.3977L12.7037 47.0009C11.1145 46.213 10.2818 44.4313 10.6937 42.7055L20.173 3.12266C20.5827 1.41033 22.1137 0.203857 23.873 0.203857H27.0067C28.7661 0.203857 30.2971 1.41033 30.7067 3.12266L40.1839 42.7078C40.5957 44.4335 39.763 46.2153 38.1738 47.0032L35.3602 48.3999C34.8208 48.6685 34.2433 48.7961 33.6703 48.7961L33.6725 48.7938Z" fill="#0077FF"/>
<path d="M17.7561 18.0304L14.647 16.6627L16.4735 18.8921L13.4115 20.2396L7.89172 13.4977L9.7876 11.002L18.5194 14.8452L17.7561 18.0304Z" fill="url(#paint0_linear_2001_377)"/>
<path d="M16.892 21.6409L16.3638 23.8456L15.9497 25.5759L11.5289 27.5232L15.4505 27.6665L14.685 30.8628L4.39756 30.4868L3.80664 27.4024L15.1774 22.3952L16.892 21.6409Z" fill="url(#paint1_linear_2001_377)"/>
<path d="M47.0382 27.4023L46.4495 30.4868L36.1956 30.8606L35.4324 27.6642L39.3159 27.5232L36.0994 26.1063L38.2191 23.5188L47.0382 27.4023Z" fill="url(#paint2_linear_2001_377)"/>
<path d="M42.9556 13.4977L34.5081 23.812L33.568 19.877L36.2003 16.6627L33.1225 18.0169L32.3593 14.8318L41.0597 11.002L42.9556 13.4977Z" fill="url(#paint3_linear_2001_377)"/>
<path d="M33.6705 44.9891L25.4401 34.939L17.2097 44.9891L14.3961 43.5924L23.8733 4.00952H27.007L36.4841 43.5946L33.6705 44.9914V44.9891ZM24.1934 31.3755H26.6869L31.7164 37.5175L25.4401 11.3043L19.1638 37.5175L24.1934 31.3755Z" fill="white"/>
<path d="M96.1708 33.9734H70.8763C65.7379 33.9734 61.554 29.7894 61.554 24.651C61.554 19.5125 65.7379 15.3286 70.8763 15.3286H96.1708V22.2488H72.6024C71.1388 22.2488 69.9377 23.1794 69.9377 24.643C69.9377 26.1066 71.1388 27.0373 72.6024 27.0373H96.1708V33.9574V33.9734Z" fill="white"/>
<path d="M98.303 15.3367H132.92V20.1331H106.719V22.2648H132.92V27.0612H106.719V29.193H132.92V33.9894H98.303V15.3526V15.3367Z" fill="white"/>
<path d="M135.059 33.9735V15.3367H163.821C167.735 15.3367 170.479 17.198 170.479 20.666C170.479 22.4796 169.628 23.8318 168.164 24.659C169.628 25.4863 170.479 26.8465 170.479 28.6521C170.479 32.1122 167.735 33.9814 163.821 33.9814H135.059V33.9735ZM143.466 20.1251V22.2569H160.878C161.626 22.2569 162.048 21.8591 162.048 21.191C162.048 20.5228 161.618 20.1251 160.878 20.1251H143.466ZM143.466 29.185H160.878C161.626 29.185 162.048 28.7873 162.048 28.1191C162.048 27.451 161.618 27.0533 160.878 27.0533H143.466V29.185Z" fill="white"/>
<path d="M172.341 15.3367H206.958V20.1331H180.757V22.2648H206.958V27.0612H180.757V29.193H206.958V33.9894H172.341V15.3526V15.3367Z" fill="white"/>
<path d="M209.09 33.9735V15.3367H237.049C241.71 15.3367 244.502 19.0672 244.502 22.7898C244.502 26.5124 241.71 30.2429 237.049 30.2429H217.505V33.9735H209.09ZM217.505 21.7239V23.8557H234.917C235.665 23.8557 236.086 23.4579 236.086 22.7898C236.086 22.1216 235.657 21.7239 234.917 21.7239H217.505Z" fill="white"/>
<path d="M251.35 19.958L254.412 19.3694L251.35 18.7888L252.766 16.9036L250.706 18.1604L250.054 15.0105L249.393 18.1604L247.341 16.9036L248.757 18.7888L245.687 19.3694L248.757 19.9501L247.341 21.8432L249.385 20.5864L250.054 23.7363L250.706 20.5864L252.766 21.8432L251.35 19.958Z" fill="white"/>
<defs>
<linearGradient id="paint0_linear_2001_377" x1="13.9688" y1="14.7564" x2="29.8677" y2="19.3522" gradientUnits="userSpaceOnUse">
<stop stop-color="white"/>
<stop offset="1" stop-color="#0077FF" stop-opacity="0"/>
</linearGradient>
<linearGradient id="paint1_linear_2001_377" x1="8.08859" y1="27.7359" x2="26.4564" y2="17.1044" gradientUnits="userSpaceOnUse">
<stop stop-color="white"/>
<stop offset="1" stop-color="#0077FF" stop-opacity="0"/>
</linearGradient>
<linearGradient id="paint2_linear_2001_377" x1="42.0688" y1="26.5027" x2="29.6592" y2="19.237" gradientUnits="userSpaceOnUse">
<stop stop-color="white"/>
<stop offset="1" stop-color="#0077FF" stop-opacity="0"/>
</linearGradient>
<linearGradient id="paint3_linear_2001_377" x1="38.4185" y1="16.2083" x2="26.5552" y2="23.1472" gradientUnits="userSpaceOnUse">
<stop stop-color="white"/>
<stop offset="1" stop-color="#0077FF" stop-opacity="0"/>
</linearGradient>
</defs>
</svg>
